<svg xmlns="http://www.w3.org/2000/svg" viewBox="0 0 100 100" width="100" height="100">
    <g fill="none" stroke="#2d43a0" stroke-linecap="round" stroke-linejoin="round">
      <path d="M8 24 Q12 30 18 30 L82 30 Q88 30 92 24" stroke-width="3.6" />
      <path d="M50 18 L50 30" stroke-width="3.6" />
      <path d="M18 30 L8 66 M18 30 L28 66 M82 30 L72 66 M82 30 L92 66" stroke-width="1.6" />
    </g>
    <path d="M46 18 L50 10 L54 18 Z" fill="#2d43a0" /><circle cx="50" cy="30" r="3.6" fill="#2d43a0" />
    <path d="M4 66 L32 66 C30 76 24 80 18 80 C12 80 6 76 4 66 Z" fill="#2d43a0" />
    <path d="M68 66 L96 66 C94 76 88 80 82 80 C76 80 70 76 68 66 Z" fill="#2d43a0" /></svg>
