<svg xmlns="http://www.w3.org/2000/svg" viewBox="0 0 96 96" fill="none">
  <defs>
    <linearGradient id="bowl" x1="18" y1="42" x2="78" y2="80" gradientUnits="userSpaceOnUse">
      <stop stop-color="#F7C56A"/>
      <stop offset="1" stop-color="#E97855"/>
    </linearGradient>
    <linearGradient id="rim" x1="18" y1="35" x2="78" y2="35" gradientUnits="userSpaceOnUse">
      <stop stop-color="#F9E3A6"/>
      <stop offset="1" stop-color="#F3A36E"/>
    </linearGradient>
  </defs>
  <path d="M22 40c2 20 7 35 26 38 19-3 24-18 26-38H22Z" fill="url(#bowl)" stroke="#261D36" stroke-width="3"/>
  <ellipse cx="48" cy="40" rx="29" ry="9" fill="#302347" stroke="#F9E3A6" stroke-width="3"/>
  <ellipse cx="48" cy="39" rx="20" ry="4.5" fill="#111827"/>
  <path d="M48 34c-7-8 2-10-1-17M48 31c8-7 1-11 6-16M42 31c-5-4-8-1-10-7" stroke="#F9E3A6" stroke-linecap="round" stroke-width="3"/>
  <circle cx="47" cy="16" r="2.5" fill="#F9E3A6"/>
  <path d="M31 55c5 5 10 7 17 7s13-2 18-7" stroke="#FFF5D7" stroke-linecap="round" stroke-opacity=".65" stroke-width="2"/>
</svg>
